<svg xmlns="http://www.w3.org/2000/svg" viewBox="0 0 1400 933" width="1400" height="933"><rect width="1400" height="933" fill="#111"/><polygon points="-933,0 -778,0 -1711,933 -1866,933" fill="#1c1c1c"/><polygon points="-623,0 -468,0 -1401,933 -1556,933" fill="#1c1c1c"/><polygon points="-313,0 -158,0 -1091,933 -1246,933" fill="#1c1c1c"/><polygon points="-3,0 152,0 -781,933 -936,933" fill="#1c1c1c"/><polygon points="307,0 462,0 -471,933 -626,933" fill="#1c1c1c"/><polygon points="617,0 772,0 -161,933 -316,933" fill="#1c1c1c"/><polygon points="927,0 1082,0 149,933 -6,933" fill="#1c1c1c"/><polygon points="1237,0 1392,0 459,933 304,933" fill="#1c1c1c"/><polygon points="1547,0 1702,0 769,933 614,933" fill="#1c1c1c"/><polygon points="1857,0 2012,0 1079,933 924,933" fill="#1c1c1c"/><polygon points="2167,0 2322,0 1389,933 1234,933" fill="#1c1c1c"/><rect y="927" width="1400" height="6" fill="#e10600"/><text x="700" y="466" fill="#f5f5f5" font-family="Inter,Arial,sans-serif" font-size="53" font-weight="700" text-anchor="middle">DRONE WORKS</text><text x="700" y="529" fill="#8a8a8a" font-family="Inter,Arial,sans-serif" font-size="26" text-anchor="middle">drone-4.svg</text></svg>