<svg xmlns="http://www.w3.org/2000/svg" viewBox="0 0 1600 900" width="1600" height="900"><rect width="1600" height="900" fill="#111"/><polygon points="-900,0 -723,0 -1623,900 -1800,900" fill="#1c1c1c"/><polygon points="-546,0 -369,0 -1269,900 -1446,900" fill="#1c1c1c"/><polygon points="-192,0 -15,0 -915,900 -1092,900" fill="#1c1c1c"/><polygon points="162,0 339,0 -561,900 -738,900" fill="#1c1c1c"/><polygon points="516,0 693,0 -207,900 -384,900" fill="#1c1c1c"/><polygon points="870,0 1047,0 147,900 -30,900" fill="#1c1c1c"/><polygon points="1224,0 1401,0 501,900 324,900" fill="#1c1c1c"/><polygon points="1578,0 1755,0 855,900 678,900" fill="#1c1c1c"/><polygon points="1932,0 2109,0 1209,900 1032,900" fill="#1c1c1c"/><polygon points="2286,0 2463,0 1563,900 1386,900" fill="#1c1c1c"/><rect y="894" width="1600" height="6" fill="#e10600"/><text x="800" y="450" fill="#f5f5f5" font-family="Inter,Arial,sans-serif" font-size="61" font-weight="700" text-anchor="middle">MATCH FILM</text><text x="800" y="522" fill="#8a8a8a" font-family="Inter,Arial,sans-serif" font-size="30" text-anchor="middle">match-film-cover.svg</text></svg>